<svg viewBox="0 0 800 420" xmlns="http://www.w3.org/2000/svg" class="article-svg">
  <!-- Background -->
  <rect width="800" height="420" fill="#0a1628"/>
  
  <!-- Pitch -->
  <rect x="50" y="40" width="700" height="340" fill="#1a4d2e" stroke="#FFFFFF" stroke-width="2"/>
  
  <!-- Center line -->
  <line x1="400" y1="40" x2="400" y2="380" stroke="#FFFFFF" stroke-width="2"/>
  
  <!-- Center circle -->
  <circle cx="400" cy="210" r="50" fill="none" stroke="#FFFFFF" stroke-width="2"/>
  
  <!-- Center spot -->
  <circle cx="400" cy="210" r="4" fill="#FFFFFF"/>
  
  <!-- Penalty areas -->
  <rect x="50" y="120" width="120" height="180" fill="none" stroke="#FFFFFF" stroke-width="2"/>
  <rect x="630" y="120" width="120" height="180" fill="none" stroke="#FFFFFF" stroke-width="2"/>
  
  <!-- Goal areas -->
  <rect x="50" y="160" width="60" height="100" fill="none" stroke="#FFFFFF" stroke-width="2"/>
  <rect x="690" y="160" width="60" height="100" fill="none" stroke="#FFFFFF" stroke-width="2"/>
  
  <!-- Liverpool formation (4-3-3) - Left side in red -->
  <!-- Goalkeeper -->
  <circle cx="80" cy="210" r="12" fill="#C8102E" stroke="#FFFFFF" stroke-width="1.5"/>
  <text x="80" y="235" font-size="11" fill="#FFFFFF" text-anchor="middle" font-weight="bold">GK</text>
  
  <!-- Defenders -->
  <circle cx="140" cy="120" r="11" fill="#C8102E" stroke="#FFFFFF" stroke-width="1.5"/>
  <text x="140" y="142" font-size="10" fill="#FFFFFF" text-anchor="middle">LB</text>
  
  <circle cx="140" cy="210" r="11" fill="#C8102E" stroke="#FFFFFF" stroke-width="1.5"/>
  <text x="140" y="232" font-size="10" fill="#FFFFFF" text-anchor="middle">CB</text>
  
  <circle cx="140" cy="300" r="11" fill="#C8102E" stroke="#FFFFFF" stroke-width="1.5"/>
  <text x="140" y="322" font-size="10" fill="#FFFFFF" text-anchor="middle">RB</text>
  
  <circle cx="180" cy="165" r="11" fill="#C8102E" stroke="#FFFFFF" stroke-width="1.5"/>
  <text x="180" y="187" font-size="10" fill="#FFFFFF" text-anchor="middle">CB</text>
  
  <!-- Midfielders -->
  <circle cx="280" cy="100" r="10" fill="#C8102E" stroke="#FFFFFF" stroke-width="1.5"/>
  <text x="280" y="120" font-size="10" fill="#FFFFFF" text-anchor="middle">CM</text>
  
  <circle cx="280" cy="210" r="10" fill="#C8102E" stroke="#FFFFFF" stroke-width="1.5"/>
  <text x="280" y="230" font-size="10" fill="#FFFFFF" text-anchor="middle">CM</text>
  
  <circle cx="280" cy="320" r="10" fill="#C8102E" stroke="#FFFFFF" stroke-width="1.5"/>
  <text x="280" y="340" font-size="10" fill="#FFFFFF" text-anchor="middle">CM</text>
  
  <!-- Forwards -->
  <circle cx="360" cy="90" r="11" fill="#C8102E" stroke="#FFFFFF" stroke-width="1.5"/>
  <text x="360" y="110" font-size="10" fill="#FFFFFF" text-anchor="middle">LW</text>
  
  <circle cx="360" cy="210" r="11" fill="#C8102E" stroke="#FFFFFF" stroke-width="1.5"/>
  <text x="360" y="230" font-size="10" fill="#FFFFFF" text-anchor="middle">ST</text>
  
  <circle cx="360" cy="330" r="11" fill="#C8102E" stroke="#FFFFFF" stroke-width="1.5"/>
  <text x="360" y="350" font-size="10" fill="#FFFFFF" text-anchor="middle">RW</text>
  
  <!-- Opposition formation (4-2-3-1) - Right side in navy outline -->
  <!-- Goalkeeper -->
  <circle cx="720" cy="210" r="12" fill="none" stroke="#F6EB61" stroke-width="2"/>
  <text x="720" y="235" font-size="11" fill="#F6EB61" text-anchor="middle" font-weight="bold">GK</text>
  
  <!-- Defenders -->
  <circle cx="660" cy="120" r="11" fill="none" stroke="#F6EB61" stroke-width="1.5"/>
  <text x="660" y="142" font-size="10" fill="#F6EB61" text-anchor="middle">LB</text>
  
  <circle cx="620" cy="165" r="11" fill="none" stroke="#F6EB61" stroke-width="1.5"/>
  <text x="620" y="187" font-size="10" fill="#F6EB61" text-anchor="middle">CB</text>
  
  <circle cx="660" cy="300" r="11" fill="none" stroke="#F6EB61" stroke-width="1.5"/>
  <text x="660" y="322" font-size="10" fill="#F6EB61" text-anchor="middle">RB</text>
  
  <circle cx="620" cy="255" r="11" fill="none" stroke="#F6EB61" stroke-width="1.5"/>
  <text x="620" y="277" font-size="10" fill="#F6EB61" text-anchor="middle">CB</text>
  
  <!-- Midfielders -->
  <circle cx="520" cy="150" r="10" fill="none" stroke="#F6EB61" stroke-width="1.5"/>
  <text x="520" y="170" font-size="10" fill="#F6EB61" text-anchor="middle">DM</text>
  
  <circle cx="520" cy="270" r="10" fill="none" stroke="#F6EB61" stroke-width="1.5"/>
  <text x="520" y="290" font-size="10" fill="#F6EB61" text-anchor="middle">DM</text>
  
  <!-- Attacking midfielders -->
  <circle cx="440" cy="80" r="10" fill="none" stroke="#F6EB61" stroke-width="1.5"/>
  <text x="440" y="100" font-size="10" fill="#F6EB61" text-anchor="middle">AM</text>
  
  <circle cx="440" cy="210" r="10" fill="none" stroke="#F6EB61" stroke-width="1.5"/>
  <text x="440" y="230" font-size="10" fill="#F6EB61" text-anchor="middle">AM</text>
  
  <circle cx="440" cy="340" r="10" fill="none" stroke="#F6EB61" stroke-width="1.5"/>
  <text x="440" y="360" font-size="10" fill="#F6EB61" text-anchor="middle">AM</text>
  
  <!-- Forward -->
  <circle cx="540" cy="210" r="11" fill="none" stroke="#F6EB61" stroke-width="1.5"/>
  <text x="540" y="230" font-size="10" fill="#F6EB61" text-anchor="middle">ST</text>
  
  <!-- Key battle indicators -->
  <line x1="280" y1="210" x2="520" y2="210" stroke="#F6EB61" stroke-width="1.5" stroke-dasharray="5,3"/>
  
  <!-- Title -->
  <text x="400" y="410" font-size="16" fill="#F6EB61" text-anchor="middle" font-weight="bold">MATCH PREVIEW - TACTICAL LINEUP</text>
  
  <!-- Legend -->
  <circle cx="70" cy="395" r="5" fill="#C8102E"/>
  <text x="85" y="400" font-size="11" fill="#FFFFFF">Liverpool</text>
  
  <circle cx="280" cy="395" r="5" fill="none" stroke="#F6EB61" stroke-width="1.5"/>
  <text x="295" y="400" font-size="11" fill="#F6EB61">Opposition</text>
</svg>